<?xml version="1.0" encoding="UTF-8"?>
<svg width="800px" height="600px" viewBox="0 0 800 600" version="1.1" xmlns="http://www.w3.org/2000/svg" xmlns:xlink="http://www.w3.org/1999/xlink">
    <title>Placeholder Image</title>
    <g id="Placeholder" stroke="none" stroke-width="1" fill="none" fill-rule="evenodd">
        <rect fill="#F0F0F0" x="0" y="0" width="800" height="600"></rect>
        <g id="Icon" transform="translate(350.000000, 250.000000)" fill="#CCCCCC">
            <path d="M100,0 C111.046,0 120,8.95431 120,20 L120,80 C120,91.0457 111.046,100 100,100 L20,100 C8.95431,100 0,91.0457 0,80 L0,20 C0,8.95431 8.95431,0 20,0 L100,0 Z M50,20 C39.5066,20 31,28.5066 31,39 C31,49.4934 39.5066,58 50,58 C60.4934,58 69,49.4934 69,39 C69,28.5066 60.4934,20 50,20 Z M89,76 L89,80 L11,80 L11,76 C11,64.9543 19.9543,56 31,56 L33.5193,56 C38.7093,60.5605 44.1314,63 50,63 C55.8686,63 61.2907,60.5605 66.4807,56 L69,56 C80.0457,56 89,64.9543 89,76 Z" id="Combined-Shape"></path>
        </g>
        <text id="Tibetan-Cancer-Soci" font-family="Arial-BoldMT, Arial" font-size="36" font-weight="bold" fill="#555555">
            <tspan x="160" y="200">Tibetan Cancer Society</tspan>
        </text>
        <text id="Placeholder-Image" font-family="ArialMT, Arial" font-size="24" font-weight="normal" fill="#555555">
            <tspan x="300" y="350">Placeholder Image</tspan>
        </text>
    </g>
</svg>
